<?xml version="1.0" encoding="UTF-8" standalone="no"?>
<!-- Created with Inkscape (http://www.inkscape.org/) -->

<svg
   xmlns:dc="http://purl.org/dc/elements/1.1/"
   xmlns:cc="http://creativecommons.org/ns#"
   xmlns:rdf="http://www.w3.org/1999/02/22-rdf-syntax-ns#"
   xmlns:svg="http://www.w3.org/2000/svg"
   xmlns="http://www.w3.org/2000/svg"
   xmlns:sodipodi="http://sodipodi.sourceforge.net/DTD/sodipodi-0.dtd"
   xmlns:inkscape="http://www.inkscape.org/namespaces/inkscape"
   version="1.1"
   id="svg2"
   width="266.66665649414"
   height="266.66665649414"
   viewBox="0 0 266.66665649414 266.66665649414"
   sodipodi:docname="Dont Care.svg"
   inkscape:version="0.92.4 (5da689c313, 2019-01-14)">
  <metadata
     id="metadata8">
    <rdf:RDF>
      <cc:Work
         rdf:about="">
        <dc:format>image/svg+xml</dc:format>
        <dc:type
           rdf:resource="http://purl.org/dc/dcmitype/StillImage" />
        <dc:title />
      </cc:Work>
    </rdf:RDF>
  </metadata>
  <defs
     id="defs6" />
  <sodipodi:namedview
     pagecolor="#ffffff"
     bordercolor="#666666"
     borderopacity="1"
     objecttolerance="10"
     gridtolerance="10"
     guidetolerance="10"
     inkscape:pageopacity="0"
     inkscape:pageshadow="2"
     inkscape:window-width="1920"
     inkscape:window-height="1017"
     id="namedview4"
     showgrid="false"
     inkscape:zoom="7.0800002588736"
     inkscape:cx="-24.805479274367"
     inkscape:cy="12.078054169959"
     inkscape:window-x="-8"
     inkscape:window-y="-8"
     inkscape:window-maximized="1"
     inkscape:current-layer="svg2" />
  <path
     style="fill:#000000;stroke-width:0.1499970257"
     d="m 12.119425137133,251.09256650452 c -0.433641814951,-0.61190600587 -0.748397895912,-2.03770986674 -0.630503966953,-2.85610046875 0.127688585878,-0.88638269662 0.66206276579,-2.11419414222 0.920150048266,-2.11419414222 0.468720378153,0 0.54231344686,0.32837992266 0.206736099198,0.92247796509 -0.57458970059,1.01723974727 -0.434820770407,2.84572887825 0.304417598065,3.98246068428 0.02619735681,0.0402838516 -0.08694130552,0.15094698712 -0.251419249629,0.245918079 -0.254890574005,0.14717618373 -0.336016495786,0.12051293769 -0.549380528947,-0.1805621174 z m 7.675074892121,0.16406370094 c -0.25453340318,-0.17571955943 -0.250604599123,-0.22368084907 0.06729880469,-0.8215572518 0.47742603915,-0.89788835046 0.477955375808,-2.39972365032 0.0011859635,-3.36481837012 -0.273778691583,-0.55419320696 -0.307381103148,-0.73629849439 -0.152620319106,-0.8271122751 0.388692205857,-0.22808496976 0.554554346552,-0.11113317777 0.902457130104,0.63633556227 0.587314226353,1.26184395624 0.445946316308,3.37162971641 -0.28463245824,4.24787709662 -0.224391476153,0.26913243304 -0.303385952709,0.288267224 -0.533689120948,0.12927523813 z m -13.4082243282296,-2.50216610558 -0.6901402405052,-2.56007735136 -1.7463728602645,-0.0407811124 c -1.7407010119391,-0.040648664 -1.7463728602644,-0.0419368396 -1.7463728602644,-0.39663170232 v -0.3558505899 h 2.0219219457088 2.0219219457089 l 0.1505033895688,0.54086141226 c 0.082776864263,0.29747377674 0.4013723879155,1.43360770959 0.7079900525613,2.52474207298 0.306617664646,1.0911343634 0.5574866629928,2.01600737837 0.5574866629928,2.05527336659 0,0.0392659882 0.772175108082,0.0713927059 1.7159446846268,0.0713927059 h 1.7159446846273 v 0.36057427483 0.36057427484 h -2.0093435821273 -2.009343582128 z m 15.0044955125226,2.19950307653 v -0.36057427484 h 1.693066503211 1.693066503211 l 0.579477557996,-2.05527336659 c 0.318712656899,-1.13040035162 0.647603362188,-2.29866100211 0.730868233977,-2.59613477885 l 0.151390675982,-0.54086141226 h 2.02192194571 2.021921945708 v 0.3558505899 c 0,0.35465527238 -0.0058563256,0.35598757541 -1.743450531901,0.39663170232 l -1.743450531902,0.0407811124 -0.700358154763,2.56007735136 -0.700358154765,2.56007735137 h -2.002047996231 -2.002047996233 z m -6.400147008028,-0.65655422011 c -0.204632035656,-0.35352068565 -0.232767985264,-0.31545340166 0.472338097498,-0.63906243599 0.688718410763,-0.31608789838 1.666532076734,-1.16857085845 1.988020660701,-1.73320725256 0.135498773015,-0.2379790214 0.327343914165,-0.72475429243 0.426322535891,-1.08172282452 0.09897862172,-0.35696853209 0.22802229072,-0.63280785235 0.286763708878,-0.61297626723 0.05874141816,0.0198315851 0.212099184113,0.0360574275 0.34079503546,0.0360574275 0.320158341562,0 0.293498583303,0.41904885043 -0.08638254038,1.35779566679 -0.397256886217,0.98168509559 -1.426705640862,2.06077145629 -2.463907273742,2.58271110742 l -0.787030917147,0.3960489738 z m -0.884575533697,-2.76890139088 c -0.08883436985,-0.33713694697 -0.211402173377,-0.72157958122 -0.272372896723,-0.854316965 -0.07612097841,-0.16572051258 -0.0078568284,-0.29230665681 0.217864020835,-0.403997799 0.295558639747,-0.14624826272 0.353341385701,-0.10817390875 0.572787278706,0.37742245092 0.134237068484,0.29704375369 0.281733392381,0.75468208349 0.327769608661,1.01697406623 0.07574237223,0.43154321955 0.04717382988,0.47689451409 -0.300414381983,0.47689451409 -0.322569221373,0 -0.409996623787,-0.0982177782 -0.545633629496,-0.61297626724 z m 1.76463058595,-0.0721148549 c -0.279342733565,-1.30260789161 -0.28083056787,-1.43716503749 -0.01692642838,-1.53079673219 0.399378824927,-0.14169734617 0.518278558228,-0.001261318 0.627276568666,0.74089510411 0.0550678093,0.37495114009 0.134051863451,0.7953102422 0.175520120349,0.93413133801 0.0571830781,0.19142877365 -0.01835840247,0.2524019924 -0.312708113423,0.2524019924 -0.29877063623,0 -0.407683479499,-0.091297004 -0.473162147212,-0.39663170233 z"
     id="path7"
     inkscape:connector-curvature="0" />
</svg>
