<?xml version="1.0" standalone="no"?>
<!DOCTYPE svg PUBLIC "-//W3C//DTD SVG 20010904//EN"
 "http://www.w3.org/TR/2001/REC-SVG-20010904/DTD/svg10.dtd">
<svg version="1.0" xmlns="http://www.w3.org/2000/svg"
 width="848.000000pt" height="925.000000pt" viewBox="0 0 848.000000 925.000000"
 preserveAspectRatio="xMidYMid meet">
<metadata>
Created by potrace 1.15, written by Peter Selinger 2001-2017
</metadata>
<g transform="translate(0.000000,925.000000) scale(0.100000,-0.100000)"
fill="#000000" stroke="none">
<path d="M2861 9093 c-5 -21 -60 -236 -122 -478 -61 -242 -156 -613 -210 -824
-55 -212 -99 -393 -99 -403 0 -15 56 -227 145 -553 14 -49 43 -160 65 -245 43
-169 140 -533 200 -755 21 -77 59 -221 84 -320 26 -99 51 -189 55 -200 5 -11
53 -72 108 -135 54 -63 159 -185 232 -270 73 -85 144 -167 157 -182 13 -16 22
-28 19 -28 -2 0 -125 60 -271 132 l-267 133 -205 240 c-465 542 -756 882 -781
910 -15 17 -102 118 -194 226 l-167 197 -168 93 c-92 51 -180 100 -197 109
-111 62 -169 93 -315 175 -600 335 -801 445 -811 445 -5 0 -13 -8 -18 -18 -10
-19 -13 -16 189 -171 76 -58 461 -354 550 -423 19 -15 141 -108 270 -207 129
-100 249 -192 267 -206 27 -21 162 -175 448 -510 49 -57 353 -412 425 -495 26
-30 153 -179 283 -331 231 -269 238 -276 324 -326 233 -134 503 -296 501 -299
-2 -1 -114 15 -248 36 -631 101 -753 119 -764 113 -12 -8 -273 -196 -446 -323
-58 -43 -124 -90 -146 -106 -72 -50 -246 -176 -322 -233 l-74 -54 63 -63 62
-63 156 81 c86 44 201 104 256 133 55 29 168 87 250 130 83 43 177 93 210 111
l61 33 144 -23 c80 -14 217 -36 305 -49 388 -62 377 -59 363 -73 -7 -7 -150
-95 -318 -197 -168 -101 -399 -242 -515 -312 -115 -71 -239 -145 -275 -166
l-65 -38 -62 -258 c-35 -142 -95 -391 -133 -553 -79 -328 -117 -486 -184 -764
l-46 -189 181 -386 c100 -212 206 -438 236 -501 29 -63 95 -204 146 -312 50
-109 95 -198 98 -198 3 0 13 6 23 13 19 14 12 43 -74 342 -30 105 -103 368
-215 770 -36 132 -70 252 -74 266 -6 18 1 65 24 160 18 74 61 251 95 394 34
143 82 346 107 450 25 105 67 275 92 380 l47 189 319 173 c176 95 322 173 325
173 3 0 5 -102 6 -228 1 -202 4 -243 28 -372 55 -294 131 -494 262 -692 245
-369 633 -576 1039 -555 209 11 398 75 577 194 102 67 271 239 345 349 203
306 312 721 302 1154 -2 83 -2 150 1 150 3 0 149 -78 324 -173 l319 -172 27
-105 c15 -58 40 -159 55 -225 15 -66 42 -181 60 -255 18 -74 60 -250 94 -390
34 -140 78 -327 99 -414 l38 -159 -18 -66 c-11 -36 -29 -104 -42 -151 -37
-131 -150 -537 -200 -715 -86 -304 -129 -465 -125 -469 2 -2 14 -7 26 -10 16
-5 23 -2 28 15 4 12 43 97 87 188 44 91 84 175 88 186 6 16 232 498 365 780
18 39 49 105 69 147 l36 77 -69 283 c-38 156 -97 400 -131 543 -34 143 -98
406 -141 583 -43 178 -79 330 -79 337 0 7 -21 25 -47 40 -27 16 -109 65 -183
110 -142 87 -247 150 -682 414 -147 89 -270 166 -273 170 -2 5 44 16 103 25
59 10 179 29 267 43 88 13 225 35 304 49 141 23 145 23 175 5 17 -10 121 -65
231 -121 110 -56 232 -119 270 -140 39 -21 153 -80 255 -133 102 -53 358 -186
570 -296 353 -184 386 -199 398 -183 11 14 10 19 -5 30 -28 21 -204 148 -243
176 -19 14 -116 84 -215 156 -99 72 -286 206 -415 299 -129 94 -302 219 -385
278 -82 60 -213 155 -290 211 l-141 101 -254 -39 c-140 -22 -365 -58 -500 -80
-134 -21 -246 -37 -248 -36 -2 2 63 43 145 91 81 48 175 103 208 122 33 20
101 60 151 89 84 50 101 66 225 212 74 87 229 268 344 401 116 134 224 260
240 280 41 50 388 455 395 461 3 3 30 34 60 70 152 185 175 206 466 429 43 34
111 86 149 115 71 55 231 179 413 318 89 68 452 347 460 354 7 5 -9 44 -18 44
-8 0 -335 -180 -855 -470 -115 -64 -305 -170 -420 -234 -183 -101 -218 -124
-261 -174 -28 -31 -148 -172 -268 -312 -120 -140 -240 -280 -266 -310 -129
-151 -204 -238 -300 -350 -58 -68 -150 -175 -205 -239 -55 -64 -123 -143 -150
-175 -108 -129 -107 -128 -383 -265 -144 -72 -265 -131 -267 -131 -4 0 227
273 502 591 13 15 32 83 173 624 33 127 69 262 80 300 20 70 59 214 124 465
19 74 69 261 111 415 44 164 74 292 72 310 -2 17 -48 201 -102 410 -53 209
-146 571 -206 805 -135 526 -130 510 -138 510 -3 0 -12 -4 -19 -9 -11 -6 -10
-35 3 -157 77 -730 91 -870 115 -1104 12 -113 27 -261 35 -330 l13 -125 -179
-675 c-99 -371 -216 -810 -260 -975 l-80 -300 -68 -70 c-38 -38 -131 -134
-207 -213 -76 -79 -140 -140 -141 -135 -2 5 0 44 5 86 8 79 6 86 -18 65 -8 -7
-4 -1 9 14 l23 26 -4 274 c-3 242 -5 277 -22 311 -68 137 -304 170 -390 54
-18 -24 -21 -42 -20 -115 l2 -87 -158 0 -158 0 2 87 c1 97 -12 126 -75 163
-54 32 -158 28 -232 -8 -114 -57 -127 -99 -127 -432 l0 -220 302 -302 302
-302 23 21 c13 12 23 19 23 17 0 -3 -14 -18 -32 -35 -17 -16 -28 -24 -25 -18
3 5 -129 145 -294 310 -294 292 -301 298 -295 259 3 -22 8 -71 11 -110 l6 -70
-113 115 c-62 63 -157 161 -212 217 l-98 101 -34 129 c-19 70 -37 137 -39 149
-6 26 -223 843 -258 969 -14 50 -57 212 -96 360 -39 149 -75 285 -80 303 -7
24 -6 73 4 160 8 70 23 217 34 327 82 794 103 996 117 1118 8 76 12 142 9 147
-13 22 -35 8 -44 -27z m919 -4928 c-24 -25 -39 -45 -32 -45 6 0 -6 -23 -27
-51 -46 -61 -119 -208 -154 -309 -40 -117 -59 -224 -64 -366 -16 -389 108
-721 361 -962 223 -212 493 -289 787 -223 62 14 183 64 232 97 l42 27 -46 -54
c-101 -118 -279 -228 -436 -271 -109 -29 -297 -29 -404 0 -181 49 -356 166
-486 327 -227 282 -319 688 -242 1075 27 132 110 334 180 437 39 56 36 64 -6
23 -19 -19 -35 -32 -35 -29 0 3 23 27 52 54 29 28 46 41 38 29 -8 -11 -6 -9 5
4 31 38 268 282 274 282 3 0 -15 -20 -39 -45z"/>
<path d="M1238 3722 c-58 -42 -168 -122 -245 -177 -126 -90 -332 -242 -342
-251 -2 -2 2 -10 9 -19 11 -13 34 -4 189 76 97 51 232 121 301 157 178 92 314
164 319 169 5 4 -110 123 -119 122 -3 0 -53 -35 -112 -77z"/>
</g>
</svg>
